<?xml version="1.0" encoding="UTF-8"?>
<svg width="189px" height="85px" version="1.1" xmlns="http://www.w3.org/2000/svg" xmlns:cc="http://creativecommons.org/ns#" xmlns:dc="http://purl.org/dc/elements/1.1/" xmlns:rdf="http://www.w3.org/1999/02/22-rdf-syntax-ns#" xmlns:xlink="http://www.w3.org/1999/xlink">
 <metadata>
  <rdf:RDF>
   <cc:Work rdf:about="">
    <dc:format>image/svg+xml</dc:format>
    <dc:type rdf:resource="http://purl.org/dc/dcmitype/StillImage"/>
    <dc:title/>
   </cc:Work>
  </rdf:RDF>
 </metadata>
 <g transform="translate(-19,42.5)">
  <g transform="translate(.34839 6.271)" fill-rule="evenodd">
   <path d="m31.25-10.05 0.45-10.05 0.45-6.75q0.2-1.6 0.85-3.05l0.55-0.5 0.75-0.35q6.5-1.95 13.3-1.3h7l8.2 0.3 29.9-0.4 28.8 0.1 43.3 0.45 6 0.4 2.5 0.45 0.75 0.6 10.35 13.9 2.75 4.25 2.65 4.35q0.8 1.35-0.1 2.7l-11.05 16.4-3.95 5.55q-0.8 1.1-2 1.4l-2.55-0.15q-0.4-0.2-0.8-0.25l-11.95-0.4-21.2-0.1-1.85-0.2-1.9-0.15-3.3 0.2-3.3 0.15-14-0.3-4.35 0.2-4.35 0.1-16.6-0.5-16.6 0.1-2.35-0.1-2.25 0.15-4.65 0.45-4.7-0.1-10-0.3-10.6 0.3-4.85-0.45q-1.15-0.2-1.1-1.4l0.35-6.05 0.55-5.2 0.45-5.65 0.45-8.8" fill="#fde92b"/>
   <g>
    <path d="m61.8-15.15q0.55 0 0.75 0.4 0.7 1.25 0.7 3-0.05 0.95-0.45 1.3 1.05 4.6 3.15 8.25l4.1-8q0.15-0.7 0.6-1.25 0.85-1.1 1.4-1.1 0.8 0 0.8 0.9l-0.3 0.65q-1.25 1.6-2.25 3.7l-1.55 3.25-1.7 3.1q-0.65 1-1.1 1-0.55 0-1.2-1.1-1.5-2.5-2.6-5.75-1.2-3.6-1.2-6.05 0-2.3 0.85-2.3"/>
    <path d="m79.55-6.85 0.2 1.2 0.25 0.6-0.1 0.4q-0.4 1.3-0.4 2.45l0.15 1.05 0.1 0.8-0.25 0.55-0.55 0.2q-0.9 0-1.05-2.3-1.65 1.7-3 1.7-0.9 0-1.5-0.75-0.65-0.7-0.65-1.65 0-1.75 2.05-3.65 2-1.9 3.65-1.9l0.75 0.3 0.4 0.7-0.05 0.3m-5.2 4.2q0 0.75 0.6 0.75 0.95 0 2.1-1.35 1.15-1.4 1.15-2.4 0-0.75-0.35-0.75-0.6 0-2 1.35-1.5 1.45-1.5 2.4"/>
    <path d="m88.65-6.85 0.2 1.2 0.25 0.6-0.1 0.4q-0.4 1.3-0.4 2.45l0.15 1.05 0.1 0.8-0.25 0.55q-0.25 0.2-0.55 0.2-0.9 0-1.05-2.3-1.65 1.7-3 1.7-0.9 0-1.5-0.75-0.65-0.7-0.65-1.65 0-1.75 2.05-3.65 2-1.9 3.65-1.9l0.75 0.3 0.4 0.7-0.05 0.3m-5.2 4.2q0 0.75 0.6 0.75 0.95 0 2.1-1.35 1.15-1.4 1.15-2.4 0-0.75-0.35-0.75-0.6 0-2 1.35-1.5 1.45-1.5 2.4"/>
    <path d="m95.05-14.1q0.8 0 0.85 0.9l-0.45 1.45-0.8 3.2 1.5 0.05q1.75 0.1 1.75 1.05l-0.25 0.65q-0.2 0.3-0.5 0.3-0.45 0-0.75-0.3h-2.15l-0.65 2.9q-0.35 1.65-0.4 3l0.3 0.7-0.3 0.55-0.55 0.25q-1 0-1-1.65l0.4-2.85 0.6-2.9q-0.95 0.05-0.95-0.85 0-0.55 0.35-0.7l0.95-0.15 1.35-4.95q0.15-0.65 0.7-0.65"/>
    <path d="m100.45-1.9q0.95 0 2.1-1.35 1.15-1.4 1.15-2.4 0-0.75-0.35-0.75-0.6 0-2 1.35-1.5 1.45-1.5 2.4 0 0.75 0.6 0.75m-0.15-4.35q2-1.9 3.65-1.9l0.75 0.3 0.4 0.7-0.05 0.3 0.2 1.2 0.25 0.6-0.1 0.4q-0.4 1.3-0.4 2.45l0.15 1.05 0.1 0.8-0.25 0.55-0.55 0.2q-0.9 0-1.05-2.3-1.65 1.7-3 1.7-0.9 0-1.5-0.75-0.65-0.7-0.65-1.65 0-1.75 2.05-3.65"/>
    <path d="m121.15-14.9 1.35-0.4q1 0 1 0.6 0 0.95-0.65 1.05-2.1 0.4-3 1.85-1.5 2.45-1.95 5.8l3.35-0.7 1.25-0.2q0.85 0.05 0.85 0.85l-0.4 0.75-0.85 0.3-0.4-0.05-3.95 0.85q-0.55 5.3-1.7 7.5l-0.9 0.9q-0.4 0-0.7-0.3-0.3-0.35-0.3-0.8 0-0.4 0.5-0.85 0.8-0.65 1.4-6.05l-1.05 0.15q-0.3 0-0.5-0.3l-0.2-0.55q0-0.85 0.65-0.85l1.3-0.25q0.7-5.95 3.6-8.5 0.4-0.4 1.3-0.8m5.3 1.5q-0.9-0.3-0.9-1.6 0.05-0.6 0.85-0.9 1.05 0.1 1.05 1.35 0 1.2-0.7 1.2l-0.3-0.05m-1.25 5.35q1.3 0 1.3 1.25l-0.35 1.35q-0.55 2.3-0.65 4.1l0.45 0.9-0.2 0.35-0.4 0.2q-1.35 0-1.35-2.5 0-1.15 0.8-4.55l-0.05-0.45q-0.05-0.4 0.45-0.65"/>
    <path d="m131.95-12.85q-0.9 3.45-0.9 6.9l0.3 5.1 0.05 0.4v0.35l-0.2 0.3-0.35 0.15q-0.6 0-1-0.85-0.45-0.9-0.45-1.9l0.2-1.3-0.1-2.8q-0.05-4 1.15-7.7 0.3-1.1 0.7-1.1 0.35 0 0.85 0.5l0.5 0.9q0 0.55-0.6 0.85l-0.15 0.2"/>
    <path d="m141-7.15 0.1 1.05q-0.05 2.3 0.3 3.2 2.8-3.8 4.35-3.8 0.65 0 0.65 0.7 0.15 3.1 0.85 4.2l0.3 0.55q0 0.95-1.05 0.95-1.3 0-1.75-4.15-1.25 1.15-2.5 3-0.6 0.9-1.15 0.9-0.5 0-0.9-0.7-0.7-1.35-0.9-3.85-2.7 1.9-3.5 4.6-0.25 0.8-0.9 0.8-0.9 0.05-0.9-1.65l0.45-3.05 0.45-2.75-0.3-1.15q0.05-0.5 0.4-0.8l0.75-0.3q0.85 0 0.85 1.9l-0.55 3.3q3.5-3.3 4.3-3.3 0.45 0 0.65 0.35"/>
    <path d="m152.15-13.4q-0.9-0.3-0.85-1.6 0-0.6 0.8-0.9 1.05 0.1 1.05 1.35 0 1.2-0.65 1.2l-0.35-0.05m-1.65 6.45-0.05-0.45q0-0.4 0.45-0.65 1.3 0 1.3 1.25l-0.3 1.35q-0.6 2.3-0.7 4.1 0.4 0.4 0.4 0.9l-0.2 0.35-0.35 0.2q-1.35 0-1.35-2.5 0-1.15 0.8-4.55"/>
   </g>
   <path d="m31.25-10.05 0.45-10.05 0.45-6.75q0.2-1.6 0.85-3.05l0.55-0.5 0.75-0.35q6.5-1.95 13.3-1.3h7l8.2 0.3 29.9-0.4 28.8 0.1 43.3 0.45 6 0.4 2.5 0.45 0.75 0.6 10.35 13.9 2.75 4.25 2.65 4.35q0.8 1.35-0.1 2.7l-11.05 16.4-3.95 5.55q-0.8 1.1-2 1.4l-2.55-0.15q-0.4-0.2-0.8-0.25l-11.95-0.4-21.2-0.1-1.85-0.2-1.9-0.15-3.3 0.2-3.3 0.15-14-0.3-4.35 0.2-4.35 0.1-16.6-0.5-16.6 0.1-2.35-0.1-2.25 0.15-4.65 0.45-4.7-0.1-10-0.3-10.6 0.3-4.85-0.45q-1.15-0.2-1.1-1.4l0.35-6.05 0.55-5.2 0.45-5.65 0.45-8.8" fill="none" stroke="#000"/>
  </g>
 </g>
 <defs></defs>
</svg>
